<svg xmlns="http://www.w3.org/2000/svg" viewBox="0 0 32 32" style="height: 32px; width: auto; fill: currentcolor;" class="icon"><g data-name="Gruppe 206" fill="#bfce40"><path data-name="Pfad 228" d="M26.34,23.277a3.062,3.062,0,1,1-3.062-3.062,3.062,3.062,0,0,1,3.062,3.062" transform="translate(-7.277 -7.277)"></path><path data-name="Pfad 229" d="M27.925,15.345A3.043,3.043,0,0,0,26.181,13.6a5.09,5.09,0,0,0-1.706-.316c-.969-.044-1.26-.053-3.713-.053s-2.744.009-3.713.053a5.09,5.09,0,0,0-1.706.316A3.043,3.043,0,0,0,13.6,15.345a5.082,5.082,0,0,0-.316,1.706c-.044.968-.054,1.259-.054,3.713s.01,2.744.054,3.713a5.08,5.08,0,0,0,.316,1.706,3.04,3.04,0,0,0,1.743,1.743,5.077,5.077,0,0,0,1.706.317c.969.044,1.259.053,3.713.053s2.744-.009,3.713-.053a5.072,5.072,0,0,0,1.706-.317,3.043,3.043,0,0,0,1.744-1.743,5.1,5.1,0,0,0,.316-1.706c.044-.969.054-1.26.054-3.713s-.01-2.744-.054-3.713a5.065,5.065,0,0,0-.316-1.706M20.763,25.482a4.718,4.718,0,1,1,4.718-4.718,4.718,4.718,0,0,1-4.718,4.718m4.9-8.52a1.1,1.1,0,1,1,1.1-1.1,1.1,1.1,0,0,1-1.1,1.1" transform="translate(-4.763 -4.764)"></path><path data-name="Pfad 230" d="M16,0A16,16,0,1,0,32,16,16,16,0,0,0,16,0m9.132,19.788a6.735,6.735,0,0,1-.427,2.23,4.7,4.7,0,0,1-2.687,2.687,6.727,6.727,0,0,1-2.23.427c-.98.045-1.293.056-3.788.056s-2.808-.011-3.788-.056a6.731,6.731,0,0,1-2.23-.427A4.7,4.7,0,0,1,7.3,22.019a6.731,6.731,0,0,1-.427-2.23c-.045-.98-.056-1.293-.056-3.788s.01-2.808.055-3.788a6.751,6.751,0,0,1,.427-2.23A4.7,4.7,0,0,1,9.982,7.295a6.744,6.744,0,0,1,2.23-.427c.979-.045,1.293-.055,3.788-.055s2.808.01,3.788.055a6.762,6.762,0,0,1,2.23.426,4.707,4.707,0,0,1,2.687,2.688,6.735,6.735,0,0,1,.427,2.23c.045.98.056,1.293.056,3.788s-.011,2.808-.056,3.788"></path></g></svg>