<svg xmlns="http://www.w3.org/2000/svg" viewBox="0 0 32 32" style="height: 32px; width: auto; fill: currentcolor;" class="icon"><g data-name="Twitter X"><path data-name="Differenzmenge 1" d="M16,32A16,16,0,0,1,9.772,1.257,16,16,0,0,1,22.228,30.743,15.9,15.9,0,0,1,16,32ZM14.788,17.965h0l4.69,6.825H24.6L17.636,14.654l6.4-7.445H22.523l-5.561,6.464L12.521,7.209H7.4l6.717,9.775L7.4,24.791H8.916l5.872-6.826ZM22.525,23.7H20.193l-4.635-6.63-.68-.973L9.463,8.352h2.331l4.37,6.25.68.973,5.68,8.123Z" fill="#bfce40"></path></g></svg>