<svg xmlns="http://www.w3.org/2000/svg" viewBox="0 0 32 32" style="height: 32px; width: auto; fill: currentcolor;" class="icon"><path d="M-3283-1225a15.9,15.9,0,0,1-11.313-4.686A15.9,15.9,0,0,1-3299-1241a15.9,15.9,0,0,1,4.686-11.314A15.894,15.894,0,0,1-3283-1257a15.9,15.9,0,0,1,11.314,4.687A15.9,15.9,0,0,1-3267-1241a15.9,15.9,0,0,1-4.686,11.314A15.9,15.9,0,0,1-3283-1225Zm5-20a4.005,4.005,0,0,0-4,4,4,4,0,0,0,4,4,4,4,0,0,0,4-4A4.005,4.005,0,0,0-3278-1245Zm-10,0a4.005,4.005,0,0,0-4,4,4,4,0,0,0,4,4,4,4,0,0,0,4-4A4.005,4.005,0,0,0-3288-1245Z" transform="translate(3299 1257)" fill="#bfce40"></path></svg>