<svg xmlns="http://www.w3.org/2000/svg" width="260.328" height="177.042" viewBox="0 0 260.328 177.042">
  <g id="GSA_LogoMitZusatz_NegativAufMidnightGreen_RGB_XXS" transform="translate(0 -0.01)">
    <path id="Pfad_372" data-name="Pfad 372" d="M26.12,38.471V26.531s.11-.331.294-.331h4.262c2.278,0,3.931.955,3.931,3.16v.294a2.685,2.685,0,0,1-1.653,2.572,3.046,3.046,0,0,1,1.984,2.939v.22c0,2.572-2.057,3.343-4.225,3.343h-4.3s-.294-.11-.294-.294Zm1.359-6.833h3.233c1.359,0,2.5-.4,2.5-1.947v-.257c0-1.58-1.286-1.947-2.645-1.947H27.443v4.151Zm0,5.841h3.306c1.4,0,2.792-.367,2.792-2.131v-.22c0-1.727-1.4-2.241-2.792-2.241H27.479v4.556Z" transform="translate(69.841 70.028)" fill="#fff"/>
    <path id="Pfad_373" data-name="Pfad 373" d="M35.83,27.18s.294.147.294.331v8.34s-.147.294-.294.294h-.735s-.294-.11-.294-.294v-.772a2.7,2.7,0,0,1-2.461,1.249c-2.057,0-3.16-1.47-3.16-3.968V27.511s.11-.331.294-.331h.735s.294.147.294.331v4.923c0,1.763.735,2.682,2.057,2.682s2.2-.918,2.2-2.682V27.511s.11-.331.294-.331h.735Z" transform="translate(78.023 72.648)" fill="#fff"/>
    <path id="Pfad_374" data-name="Pfad 374" d="M32.164,36.278s-.294-.11-.294-.294v-8.34s.11-.331.294-.331H32.9s.294.147.294.331v.845a2.7,2.7,0,0,1,2.5-1.359c2.2,0,3.38,1.616,3.38,4v4.849s-.147.294-.331.294h-.772s-.294-.11-.294-.294v-4.96c0-1.727-.918-2.682-2.278-2.682s-2.241.955-2.241,2.682v4.96s-.147.294-.294.294h-.735Z" transform="translate(85.215 72.514)" fill="#fff"/>
    <path id="Pfad_375" data-name="Pfad 375" d="M40.442,37.626a2.9,2.9,0,0,1-2.572,1.323c-1.984,0-3.38-1.4-3.38-4V33.621c0-2.572,1.4-4,3.38-4a2.849,2.849,0,0,1,2.572,1.323V26.531s.11-.331.294-.331h.735s.331.147.331.331v11.94s-.147.294-.331.294h-.735s-.294-.11-.294-.294Zm0-4.225a2.294,2.294,0,0,0-2.315-2.572c-1.4,0-2.315,1.029-2.315,2.682v1.506c0,1.653.882,2.682,2.278,2.682S40.4,36.67,40.4,35.017V33.4Z" transform="translate(92.221 70.028)" fill="#fff"/>
    <path id="Pfad_376" data-name="Pfad 376" d="M38.529,32.677a2.34,2.34,0,0,0,2.351,2.572,2.107,2.107,0,0,0,2.168-1.506.3.3,0,0,1,.294-.184h.845s.184.073.184.184A.4.4,0,0,1,44.3,34a3.461,3.461,0,0,1-3.417,2.461,3.641,3.641,0,0,1-3.711-3.968V31.134c0-2.5,1.58-4,3.674-4A3.633,3.633,0,0,1,44.518,31.1v.882s-.11.294-.294.294H38.566v.367Zm4.629-1.47v-.257a2.331,2.331,0,1,0-4.629,0v.257h4.629Z" transform="translate(99.387 72.514)" fill="#fff"/>
    <path id="Pfad_377" data-name="Pfad 377" d="M46.46,33.816c0,1.91-1.543,2.608-3.38,2.608-2.057,0-3.2-1.176-3.38-2.425v-.184a.238.238,0,0,1,.22-.184h.735s.22.073.257.22a2.006,2.006,0,0,0,2.131,1.433c1.139,0,2.021-.367,2.021-1.433,0-2.315-5.29-.478-5.29-4.225,0-1.8,1.616-2.5,3.159-2.5,2.755,0,3.086,1.91,3.233,2.388v.11s-.11.22-.257.22h-.771s-.22-.073-.257-.22c-.11-.551-.441-1.323-2.021-1.323-.808,0-1.8.257-1.8,1.286,0,2.425,5.29.588,5.29,4.262Z" transform="translate(106.151 72.514)" fill="#fff"/>
    <path id="Pfad_378" data-name="Pfad 378" d="M49.017,36.011s-.147.294-.331.294h-.7s-.294-.11-.294-.294v-.845a2.626,2.626,0,0,1-2.461,1.323H44.9c-1.653,0-2.9-.845-2.9-2.645,0-2.131,1.653-2.645,3.306-2.645h2.388v-.625c0-1.1-.184-2.241-2.057-2.241-1.433,0-1.763.551-1.91,1.286,0,.11-.073.22-.257.22H42.7s-.257-.073-.257-.257v-.11c.147-1.065.772-2.351,3.2-2.351,3.049,0,3.38,1.947,3.38,3.49v5.364ZM45.343,32.3c-1.47,0-2.057.478-2.057,1.506s.808,1.47,1.763,1.47h.367a2.154,2.154,0,0,0,2.278-2.425v-.588H45.343Z" transform="translate(112.301 72.488)" fill="#fff"/>
    <path id="Pfad_379" data-name="Pfad 379" d="M44.974,36.278s-.294-.11-.294-.294v-8.34s.11-.331.294-.331h.735s.294.147.294.331v.845a2.7,2.7,0,0,1,2.5-1.359c2.2,0,3.38,1.616,3.38,4v4.849s-.147.294-.331.294h-.772s-.294-.11-.294-.294v-4.96c0-1.727-.918-2.682-2.278-2.682s-2.241.955-2.241,2.682v4.96s-.147.294-.294.294h-.735Z" transform="translate(119.467 72.514)" fill="#fff"/>
    <path id="Pfad_380" data-name="Pfad 380" d="M54.04,33.816c0,1.91-1.543,2.608-3.38,2.608-2.057,0-3.2-1.176-3.38-2.425v-.184a.238.238,0,0,1,.22-.184h.735s.22.073.257.22a2.006,2.006,0,0,0,2.131,1.433c1.139,0,2.021-.367,2.021-1.433,0-2.315-5.29-.478-5.29-4.225,0-1.8,1.616-2.5,3.16-2.5,2.755,0,3.086,1.91,3.233,2.388v.11s-.11.22-.257.22h-.771s-.22-.073-.257-.22c-.11-.551-.441-1.323-2.021-1.323-.808,0-1.8.257-1.8,1.286,0,2.425,5.29.588,5.29,4.262Z" transform="translate(126.419 72.514)" fill="#fff"/>
    <path id="Pfad_381" data-name="Pfad 381" d="M53.956,37.855c-2.461,0-2.866-1.065-2.866-3.16V30.14h-1.4s-.294-.11-.294-.294v-.625s.11-.331.294-.331c.955,0,1.433-.22,1.433-1.359v-.661s.11-.331.294-.331h.735s.294.147.294.331v2.021H54.47s.294.147.294.331v.625s-.11.294-.294.294H52.449v4.445c0,1.58.184,2.021,1.653,2.021h.367s.294.147.294.331V37.6s-.11.294-.294.294h-.514Z" transform="translate(132.088 70.937)" fill="#fff"/>
    <path id="Pfad_382" data-name="Pfad 382" d="M58.287,36.011s-.147.294-.331.294h-.7s-.294-.11-.294-.294v-.845A2.626,2.626,0,0,1,54.5,36.488h-.331c-1.653,0-2.9-.845-2.9-2.645,0-2.131,1.653-2.645,3.306-2.645h2.388v-.625c0-1.1-.184-2.241-2.057-2.241-1.433,0-1.763.551-1.91,1.286,0,.11-.073.22-.257.22h-.772s-.257-.073-.257-.257v-.11c.147-1.065.771-2.351,3.2-2.351,3.049,0,3.38,1.947,3.38,3.49v5.364ZM54.613,32.3c-1.47,0-2.057.478-2.057,1.506s.808,1.47,1.763,1.47h.367a2.154,2.154,0,0,0,2.278-2.425v-.588H54.613Z" transform="translate(137.088 72.488)" fill="#fff"/>
    <path id="Pfad_383" data-name="Pfad 383" d="M54.244,38.765s-.294-.11-.294-.294V26.531s.11-.331.294-.331h.735s.294.147.294.331v11.94s-.11.294-.294.294Z" transform="translate(144.254 70.028)" fill="#fff"/>
    <path id="Pfad_384" data-name="Pfad 384" d="M59.3,37.855c-2.461,0-2.866-1.065-2.866-3.16V30.14h-1.4s-.294-.11-.294-.294v-.625s.11-.331.294-.331c.955,0,1.433-.22,1.433-1.359v-.661s.11-.331.294-.331H57.5s.294.147.294.331v2.021H59.81s.294.147.294.331v.625s-.11.294-.294.294H57.789v4.445c0,1.58.184,2.021,1.653,2.021h.367s.294.147.294.331V37.6s-.11.294-.294.294H59.3Z" transform="translate(146.366 70.937)" fill="#fff"/>
    <path id="Pfad_385" data-name="Pfad 385" d="M62.974,30.746s-.11.294-.294.294H60.659V38.5s-.147.294-.294.294h-.771s-.294-.11-.294-.294V31.039H57.9s-.294-.11-.294-.294v-.625s.11-.331.294-.331h1.4v-.257c0-2.315.588-3.343,3.049-3.343h.331s.294.147.294.331v.661s-.11.294-.294.294h-.331c-1.433,0-1.69.294-1.69,2.094v.257H62.68s.294.147.294.331v.625Z" transform="translate(154.04 70.001)" fill="#fff"/>
    <path id="Pfad_386" data-name="Pfad 386" d="M66.29,29.506s.294.147.294.331v8.34s-.147.294-.294.294h-.735s-.294-.11-.294-.294V37.4A2.7,2.7,0,0,1,62.8,38.654c-2.057,0-3.159-1.47-3.159-3.968V29.837s.11-.331.294-.331h.735s.294.147.294.331V34.76c0,1.763.735,2.682,2.057,2.682s2.2-.918,2.2-2.682V29.837s.11-.331.294-.331h.735Zm-5.547-2.351a.845.845,0,1,1,1.69,0,.845.845,0,0,1-1.69,0Zm3.123,0a.845.845,0,1,1,1.69,0,.845.845,0,0,1-1.69,0Z" transform="translate(159.468 70.322)" fill="#fff"/>
    <path id="Pfad_387" data-name="Pfad 387" d="M62.624,36.144s-.294-.11-.294-.294v-8.34s.11-.331.294-.331h.7s.294.147.294.331v1.212a2.65,2.65,0,0,1,2.535-1.506h.257s.331.147.331.331v.735s-.147.294-.331.294h-.257c-1.8,0-2.461,1.47-2.461,2.976v4.372s-.11.294-.294.294h-.735Z" transform="translate(166.66 72.648)" fill="#fff"/>
    <path id="Pfad_388" data-name="Pfad 388" d="M30.766,39.642s-.294-.11-.294-.294v-.661s.11-.294.294-.294h4.078s.294.11.294.294v5.768s-.11.294-.294.294h-.661s-.294-.11-.294-.294V43.205a3.759,3.759,0,0,1-3.306,1.727c-2.9,0-4.592-2.241-4.592-4.886V36.923A4.6,4.6,0,0,1,30.619,32,4.389,4.389,0,0,1,35.1,35.784v.294a.174.174,0,0,1-.184.184h-.955a.392.392,0,0,1-.22-.294,3.069,3.069,0,0,0-3.123-2.719c-1.8,0-3.233,1.359-3.233,3.637v3.086a3.28,3.28,0,0,0,3.27,3.6,3.1,3.1,0,0,0,3.16-3.086v-.918H30.766Z" transform="translate(69.493 85.536)" fill="#fff"/>
    <path id="Pfad_389" data-name="Pfad 389" d="M30.529,38.528A2.34,2.34,0,0,0,32.881,41.1a2.108,2.108,0,0,0,2.168-1.506.3.3,0,0,1,.294-.184h.845s.184.073.184.184a.4.4,0,0,1-.073.257,3.461,3.461,0,0,1-3.417,2.461,3.641,3.641,0,0,1-3.711-3.968V36.984c0-2.5,1.58-4,3.674-4a3.633,3.633,0,0,1,3.674,3.968v.882s-.11.294-.294.294H30.566v.367Zm4.629-1.47V36.8a2.331,2.331,0,1,0-4.629,0v.257h4.629Z" transform="translate(77.996 88.156)" fill="#fff"/>
    <path id="Pfad_390" data-name="Pfad 390" d="M31.73,36.984c0-2.5,1.58-4,3.674-4s3.674,1.47,3.674,4v1.359c0,2.5-1.58,3.968-3.674,3.968s-3.674-1.47-3.674-3.968Zm1.359,1.433c0,1.763.955,2.682,2.315,2.682s2.278-.918,2.278-2.682V36.911c0-1.727-.955-2.682-2.278-2.682s-2.315.955-2.315,2.682Z" transform="translate(84.841 88.156)" fill="#fff"/>
    <path id="Pfad_391" data-name="Pfad 391" d="M34.694,44.615s-.294-.11-.294-.294V32.381s.11-.331.294-.331h.735s.294.147.294.331v11.94s-.11.294-.294.294Z" transform="translate(91.98 85.67)" fill="#fff"/>
    <path id="Pfad_392" data-name="Pfad 392" d="M35.46,36.984c0-2.5,1.58-4,3.674-4s3.674,1.47,3.674,4v1.359c0,2.5-1.58,3.968-3.674,3.968s-3.674-1.47-3.674-3.968Zm1.359,1.433c0,1.763.955,2.682,2.315,2.682s2.278-.918,2.278-2.682V36.911c0-1.727-.955-2.682-2.278-2.682s-2.315.955-2.315,2.682Z" transform="translate(94.814 88.156)" fill="#fff"/>
    <path id="Pfad_393" data-name="Pfad 393" d="M40.983,46.554c-1.984,0-3.013-1.176-3.013-2.608a2.147,2.147,0,0,1,1.1-2.021,1.45,1.45,0,0,1-.918-1.433,1.515,1.515,0,0,1,1.4-1.58,2.622,2.622,0,0,1-1.139-2.241,3.027,3.027,0,0,1,3.27-3.013h.478a3.242,3.242,0,0,1,2.094.735V33.034s.11-.294.294-.294h.661s.294.147.294.294v3.6a2.987,2.987,0,0,1-3.27,3.013H40.395c-.625,0-.992.257-.992.808,0,.625.367.808,1.286.808H43c1.984,0,3.013,1.176,3.013,2.645S44.987,46.517,43,46.517H41.019Zm-1.69-2.608c0,.882.514,1.47,1.874,1.47h1.616c1.4,0,1.874-.588,1.874-1.47s-.514-1.506-1.874-1.506H41.166C39.807,42.439,39.293,43.063,39.293,43.945Zm.4-7.274a1.863,1.863,0,0,0,2.021,1.91h.4a1.9,1.9,0,1,0,0-3.784h-.4A1.836,1.836,0,0,0,39.7,36.671Z" transform="translate(101.526 87.515)" fill="#fff"/>
    <path id="Pfad_394" data-name="Pfad 394" d="M40.65,32.958a.918.918,0,1,1,.918.918A.868.868,0,0,1,40.65,32.958ZM41.2,44.641s-.294-.11-.294-.294v-8.34s.11-.331.294-.331h.771s.294.147.294.331v8.34s-.147.294-.294.294Z" transform="translate(108.692 85.643)" fill="#fff"/>
    <path id="Pfad_395" data-name="Pfad 395" d="M43.149,38.528A2.34,2.34,0,0,0,45.5,41.1a2.107,2.107,0,0,0,2.168-1.506.3.3,0,0,1,.294-.184h.845s.184.073.184.184a.4.4,0,0,1-.073.257A3.461,3.461,0,0,1,45.5,42.312a3.641,3.641,0,0,1-3.711-3.968V36.984c0-2.5,1.58-4,3.674-4a3.633,3.633,0,0,1,3.674,3.968v.882s-.11.294-.294.294H43.186v.367Zm4.629-1.47V36.8a2.331,2.331,0,1,0-4.629,0v.257h4.629Z" transform="translate(111.74 88.156)" fill="#fff"/>
    <path id="Pfad_396" data-name="Pfad 396" d="M44.337,35.969a.964.964,0,0,1,1.029-1.029c.625,0,1.065.4,1.065,1.4,0,2.425-1.653,3.2-1.947,3.2-.073,0-.147,0-.147-.184v-.625c0-.184,0-.22.184-.331a1.785,1.785,0,0,0,.735-1.433.947.947,0,0,1-.955-1.029Z" transform="translate(118.451 93.397)" fill="#fff"/>
    <path id="Pfad_397" data-name="Pfad 397" d="M51.406,39.642s-.294-.11-.294-.294v-.661s.11-.294.294-.294h4.078s.294.11.294.294v5.768s-.11.294-.294.294h-.661s-.294-.11-.294-.294V43.205a3.759,3.759,0,0,1-3.306,1.727c-2.9,0-4.592-2.241-4.592-4.886V36.923A4.6,4.6,0,0,1,51.259,32a4.389,4.389,0,0,1,4.482,3.784v.294a.174.174,0,0,1-.184.184H54.6a.392.392,0,0,1-.22-.294,3.069,3.069,0,0,0-3.123-2.719c-1.8,0-3.233,1.359-3.233,3.637v3.086a3.28,3.28,0,0,0,3.27,3.6,3.1,3.1,0,0,0,3.159-3.086v-.918H51.406Z" transform="translate(124.681 85.536)" fill="#fff"/>
    <path id="Pfad_398" data-name="Pfad 398" d="M51.169,38.528A2.34,2.34,0,0,0,53.521,41.1a2.107,2.107,0,0,0,2.168-1.506.3.3,0,0,1,.294-.184h.845s.184.073.184.184a.4.4,0,0,1-.073.257,3.461,3.461,0,0,1-3.417,2.461,3.641,3.641,0,0,1-3.711-3.968V36.984c0-2.5,1.58-4,3.674-4a3.633,3.633,0,0,1,3.674,3.968v.882s-.11.294-.294.294H51.206v.367Zm4.629-1.47V36.8a2.331,2.331,0,1,0-4.629,0v.257H55.8Z" transform="translate(133.184 88.156)" fill="#fff"/>
    <path id="Pfad_399" data-name="Pfad 399" d="M52.37,36.984c0-2.5,1.58-4,3.674-4s3.674,1.47,3.674,4v1.359c0,2.5-1.58,3.968-3.674,3.968s-3.674-1.47-3.674-3.968Zm1.359,1.433c0,1.763.955,2.682,2.315,2.682s2.278-.918,2.278-2.682V36.911c0-1.727-.955-2.682-2.278-2.682s-2.315.955-2.315,2.682Z" transform="translate(140.029 88.156)" fill="#fff"/>
    <path id="Pfad_400" data-name="Pfad 400" d="M56.373,45.424s-.147.294-.294.294h-.735s-.294-.11-.294-.294V33.484s.11-.331.294-.331h.735s.294.147.294.331v.808a2.861,2.861,0,0,1,2.572-1.323c1.984,0,3.38,1.433,3.38,4V38.3c0,2.608-1.433,4-3.38,4a2.787,2.787,0,0,1-2.572-1.323v4.409Zm0-6.98c0,1.653.918,2.682,2.315,2.682s2.278-1.029,2.278-2.682V36.938c0-1.653-.845-2.682-2.278-2.682a2.276,2.276,0,0,0-2.315,2.572Z" transform="translate(147.195 88.13)" fill="#fff"/>
    <path id="Pfad_401" data-name="Pfad 401" d="M58.014,44.615s-.294-.11-.294-.294V32.381s.11-.331.294-.331h.735s.294.147.294.331v4.445a2.7,2.7,0,0,1,2.5-1.359c2.2,0,3.38,1.616,3.38,4v4.849s-.147.294-.294.294h-.771s-.294-.11-.294-.294v-4.96c0-1.727-.918-2.682-2.241-2.682s-2.241.955-2.241,2.682v4.96s-.11.294-.294.294h-.735Z" transform="translate(154.334 85.67)" fill="#fff"/>
    <path id="Pfad_402" data-name="Pfad 402" d="M60.741,45.595s-.294-.11-.294-.294v-.7s.11-.294.294-.294h.7a1.709,1.709,0,0,0,1.8-1.4l.367-1.029L60.3,33.618a1.489,1.489,0,0,1-.11-.367.212.212,0,0,1,.22-.22h.882a.524.524,0,0,1,.331.294l2.719,6.944,2.572-6.98s.184-.257.294-.257h.918s.184.073.184.22a1.082,1.082,0,0,1-.11.331L64.452,43.17c-.661,1.616-1.176,2.425-2.976,2.425H60.7Z" transform="translate(160.938 88.29)" fill="#fff"/>
    <path id="Pfad_403" data-name="Pfad 403" d="M69.51,39.676c0,1.91-1.543,2.608-3.38,2.608-2.057,0-3.2-1.176-3.38-2.425v-.184a.238.238,0,0,1,.22-.184h.735s.22.073.257.22a2.006,2.006,0,0,0,2.131,1.433c1.139,0,2.021-.367,2.021-1.433,0-2.315-5.29-.478-5.29-4.225,0-1.8,1.616-2.5,3.159-2.5,2.755,0,3.086,1.91,3.233,2.388v.11s-.11.22-.257.22h-.771s-.22-.073-.257-.22c-.11-.551-.441-1.323-2.021-1.323-.808,0-1.8.257-1.8,1.286,0,2.425,5.29.588,5.29,4.262Z" transform="translate(167.783 88.183)" fill="#fff"/>
    <path id="Pfad_404" data-name="Pfad 404" d="M65.21,32.958a.918.918,0,1,1,.918.918A.868.868,0,0,1,65.21,32.958Zm.551,11.683s-.294-.11-.294-.294v-8.34s.11-.331.294-.331h.771s.294.147.294.331v8.34s-.147.294-.294.294Z" transform="translate(174.361 85.643)" fill="#fff"/>
    <path id="Pfad_405" data-name="Pfad 405" d="M67.509,44.615h-.735s-.294-.11-.294-.294V32.381s.11-.331.294-.331h.735s.294.147.294.331v8.413l4.078-4.813a.677.677,0,0,1,.514-.331h.955s.184.073.184.22a.5.5,0,0,1-.184.331l-2.976,3.453L73.681,44.1s.184.22.184.331a.174.174,0,0,1-.184.184H72.652a1.519,1.519,0,0,1-.4-.22L69.456,40.61l-1.617,1.91v1.8s-.11.294-.294.294Z" transform="translate(177.757 85.67)" fill="#fff"/>
    <path id="Pfad_406" data-name="Pfad 406" d="M68.907,35.969a.964.964,0,0,1,1.029-1.029c.625,0,1.065.4,1.065,1.4,0,2.425-1.653,3.2-1.947,3.2-.073,0-.147,0-.147-.184v-.625c0-.184,0-.22.184-.331a1.785,1.785,0,0,0,.735-1.433.947.947,0,0,1-.955-1.029Z" transform="translate(184.147 93.397)" fill="#fff"/>
    <path id="Pfad_407" data-name="Pfad 407" d="M27.149,50.475h-.735s-.294-.11-.294-.294V38.241s.11-.331.294-.331h.735s.331.147.331.331v6.466l5.878-6.466c.184-.184.331-.331.478-.331h.992s.184.073.184.22-.073.22-.22.367l-4.262,4.629,4.335,6.833a1.077,1.077,0,0,1,.147.294.174.174,0,0,1-.184.184H33.8a.431.431,0,0,1-.367-.22l-3.821-6.1-2.131,2.315v3.711s-.147.294-.331.294Z" transform="translate(69.841 101.338)" fill="#fff"/>
    <path id="Pfad_408" data-name="Pfad 408" d="M29.4,50.475s-.294-.11-.294-.294V38.241s.11-.331.294-.331h.735s.294.147.294.331v11.94s-.11.294-.294.294Z" transform="translate(77.835 101.338)" fill="#fff"/>
    <path id="Pfad_409" data-name="Pfad 409" d="M30.24,38.818a.918.918,0,1,1,.918.918A.868.868,0,0,1,30.24,38.818ZM30.791,50.5s-.294-.11-.294-.294v-8.34s.11-.331.294-.331h.772s.294.147.294.331v8.34s-.147.294-.294.294Z" transform="translate(80.857 101.312)" fill="#fff"/>
    <path id="Pfad_410" data-name="Pfad 410" d="M32.529,47.988h-.735s-.294-.11-.294-.294v-8.34s.11-.331.294-.331h.735s.294.147.294.331V40.2a2.626,2.626,0,0,1,2.388-1.359A2.923,2.923,0,0,1,38,40.493a2.923,2.923,0,0,1,2.792-1.653c2.535,0,3.233,1.58,3.233,4.151v4.7s-.11.294-.294.294H43s-.294-.11-.294-.294V42.918c0-1.69-.367-2.866-2.094-2.866-1.616,0-2.131,1.065-2.131,2.866v4.776s-.147.294-.294.294h-.771s-.294-.11-.294-.294V42.918c0-1.874-.478-2.866-2.094-2.866-1.69,0-2.168,1.212-2.168,2.866v4.776s-.147.294-.294.294Z" transform="translate(84.226 103.825)" fill="#fff"/>
    <path id="Pfad_411" data-name="Pfad 411" d="M42.517,47.721s-.147.294-.331.294h-.7s-.294-.11-.294-.294v-.845A2.626,2.626,0,0,1,38.733,48.2H38.4c-1.653,0-2.9-.845-2.9-2.645,0-2.131,1.653-2.645,3.306-2.645h2.388v-.625c0-1.1-.184-2.241-2.057-2.241-1.433,0-1.763.551-1.91,1.286,0,.11-.073.22-.257.22H36.2s-.257-.073-.257-.257v-.11c.147-1.065.772-2.351,3.2-2.351,3.049,0,3.38,1.947,3.38,3.49v5.364ZM38.843,44.01c-1.47,0-2.057.478-2.057,1.506s.808,1.47,1.763,1.47h.367a2.154,2.154,0,0,0,2.278-2.425v-.588H38.843Z" transform="translate(94.921 103.798)" fill="#fff"/>
    <path id="Pfad_412" data-name="Pfad 412" d="M42.356,49.565c-2.461,0-2.866-1.065-2.866-3.159V41.85h-1.4s-.294-.11-.294-.294v-.625s.11-.331.294-.331c.955,0,1.433-.22,1.433-1.359v-.661s.11-.331.294-.331h.735s.294.147.294.331V40.6H42.87s.294.147.294.331v.625s-.11.294-.294.294H40.849V46.3c0,1.58.184,2.021,1.653,2.021h.367s.294.147.294.331v.661s-.11.294-.294.294h-.514Z" transform="translate(101.071 102.248)" fill="#fff"/>
    <path id="Pfad_413" data-name="Pfad 413" d="M39.69,42.834c0-2.5,1.58-4,3.674-4s3.674,1.47,3.674,4v1.359c0,2.5-1.58,3.968-3.674,3.968s-3.674-1.47-3.674-3.968Zm1.359,1.433c0,1.763.955,2.682,2.315,2.682s2.278-.918,2.278-2.682V42.761c0-1.727-.955-2.682-2.278-2.682s-2.315.955-2.315,2.682Z" transform="translate(106.125 103.798)" fill="#fff"/>
    <path id="Pfad_414" data-name="Pfad 414" d="M42.664,50.475s-.294-.11-.294-.294V38.241s.11-.331.294-.331H43.4s.294.147.294.331v11.94s-.11.294-.294.294Z" transform="translate(113.291 101.338)" fill="#fff"/>
    <path id="Pfad_415" data-name="Pfad 415" d="M43.43,42.834c0-2.5,1.58-4,3.674-4s3.674,1.47,3.674,4v1.359c0,2.5-1.58,3.968-3.674,3.968s-3.674-1.47-3.674-3.968Zm1.359,1.433c0,1.763.955,2.682,2.315,2.682s2.278-.918,2.278-2.682V42.761c0-1.727-.955-2.682-2.278-2.682s-2.315.955-2.315,2.682Z" transform="translate(116.125 103.798)" fill="#fff"/>
    <path id="Pfad_416" data-name="Pfad 416" d="M48.953,52.4c-1.984,0-3.013-1.176-3.013-2.608a2.146,2.146,0,0,1,1.1-2.021,1.45,1.45,0,0,1-.918-1.433,1.515,1.515,0,0,1,1.4-1.58,2.622,2.622,0,0,1-1.139-2.241,3.027,3.027,0,0,1,3.27-3.013h.478a3.242,3.242,0,0,1,2.094.735V38.884s.11-.294.294-.294h.661s.294.147.294.294v3.6A2.987,2.987,0,0,1,50.2,45.5H48.365c-.625,0-.992.257-.992.808,0,.625.367.808,1.286.808h2.315c1.984,0,3.013,1.176,3.013,2.645s-1.029,2.608-3.013,2.608H48.989ZM47.263,49.8c0,.882.514,1.47,1.874,1.47h1.616c1.4,0,1.874-.588,1.874-1.47s-.514-1.506-1.874-1.506H49.136C47.777,48.289,47.263,48.913,47.263,49.8Zm.4-7.274a1.863,1.863,0,0,0,2.021,1.91h.4a1.9,1.9,0,1,0,0-3.784h-.4A1.836,1.836,0,0,0,47.667,42.521Z" transform="translate(122.836 103.157)" fill="#fff"/>
    <path id="Pfad_417" data-name="Pfad 417" d="M48.62,38.818a.918.918,0,1,1,.918.918A.868.868,0,0,1,48.62,38.818ZM49.171,50.5s-.294-.11-.294-.294v-8.34s.11-.331.294-.331h.772s.294.147.294.331v8.34s-.147.294-.294.294Z" transform="translate(130.002 101.312)" fill="#fff"/>
    <path id="Pfad_418" data-name="Pfad 418" d="M51.109,44.377a2.34,2.34,0,0,0,2.351,2.572,2.107,2.107,0,0,0,2.168-1.506.3.3,0,0,1,.294-.184h.845s.184.073.184.184a.4.4,0,0,1-.073.257,3.461,3.461,0,0,1-3.417,2.461,3.641,3.641,0,0,1-3.711-3.968V42.834c0-2.5,1.58-4,3.674-4A3.633,3.633,0,0,1,57.1,42.8v.882s-.11.294-.294.294H51.146v.367Zm4.629-1.47v-.257a2.331,2.331,0,1,0-4.629,0v.257h4.629Z" transform="translate(133.023 103.798)" fill="#fff"/>
    <path id="Pfad_419" data-name="Pfad 419" d="M60.23,38.89s.294.147.294.331v8.34s-.147.294-.294.294h-.735s-.294-.11-.294-.294v-.772a2.7,2.7,0,0,1-2.461,1.249c-2.057,0-3.16-1.47-3.16-3.968V39.221s.11-.331.294-.331h.735s.294.147.294.331v4.923c0,1.763.735,2.682,2.057,2.682s2.2-.918,2.2-2.682V39.221s.11-.331.294-.331h.735Z" transform="translate(143.264 103.959)" fill="#fff"/>
    <path id="Pfad_420" data-name="Pfad 420" d="M56.564,47.988s-.294-.11-.294-.294v-8.34s.11-.331.294-.331H57.3s.294.147.294.331V40.2a2.7,2.7,0,0,1,2.5-1.359c2.2,0,3.38,1.616,3.38,4v4.849s-.147.294-.331.294h-.771s-.294-.11-.294-.294v-4.96c0-1.727-.918-2.682-2.278-2.682s-2.241.955-2.241,2.682v4.96s-.147.294-.294.294h-.735Z" transform="translate(150.457 103.825)" fill="#fff"/>
    <path id="Pfad_421" data-name="Pfad 421" d="M64.852,49.336a2.9,2.9,0,0,1-2.572,1.323c-1.984,0-3.38-1.4-3.38-4V45.331c0-2.572,1.4-4,3.38-4a2.849,2.849,0,0,1,2.572,1.323V38.241s.11-.331.294-.331h.735s.331.147.331.331v11.94s-.147.294-.331.294h-.735s-.294-.11-.294-.294Zm0-4.225a2.294,2.294,0,0,0-2.315-2.572c-1.4,0-2.315,1.029-2.315,2.682v1.506c0,1.653.882,2.682,2.278,2.682s2.315-1.029,2.315-2.682V45.111Z" transform="translate(157.489 101.338)" fill="#fff"/>
    <path id="Pfad_422" data-name="Pfad 422" d="M26.4,56.325s-.294-.11-.294-.294V44.091s.11-.331.294-.331h1.433a.7.7,0,0,1,.294.184L32.1,54.451l4-10.507s.11-.184.257-.184h1.4s.294.147.294.331v11.94s-.147.294-.294.294h-.735s-.294-.11-.294-.294V45.67l-4,10.434s-.147.184-.294.184h-.7a.7.7,0,0,1-.294-.184l-4-10.434v10.36s-.11.294-.294.294H26.4Z" transform="translate(69.814 116.98)" fill="#fff"/>
    <path id="Pfad_423" data-name="Pfad 423" d="M31.439,50.237a2.34,2.34,0,0,0,2.351,2.572A2.107,2.107,0,0,0,35.958,51.3a.3.3,0,0,1,.294-.184H37.1s.184.073.184.184a.4.4,0,0,1-.073.257,3.461,3.461,0,0,1-3.417,2.461,3.641,3.641,0,0,1-3.711-3.968V48.694c0-2.5,1.58-4,3.674-4a3.633,3.633,0,0,1,3.674,3.968v.882s-.11.294-.294.294H31.476V50.2Zm4.629-1.47v-.257a2.331,2.331,0,1,0-4.629,0v.257h4.629Z" transform="translate(80.429 119.467)" fill="#fff"/>
    <path id="Pfad_424" data-name="Pfad 424" d="M36.906,55.415c-2.461,0-2.866-1.065-2.866-3.159V47.7h-1.4s-.294-.11-.294-.294v-.625s.11-.331.294-.331c.955,0,1.433-.22,1.433-1.359v-.661s.11-.331.294-.331h.735s.294.147.294.331v2.021H37.42s.294.147.294.331v.625s-.11.294-.294.294H35.4v4.445c0,1.58.184,2.021,1.653,2.021h.367s.294.147.294.331v.661s-.11.294-.294.294h-.514Z" transform="translate(86.499 117.89)" fill="#fff"/>
    <path id="Pfad_425" data-name="Pfad 425" d="M35.6,50.237a2.34,2.34,0,0,0,2.351,2.572A2.108,2.108,0,0,0,40.118,51.3a.3.3,0,0,1,.294-.184h.845s.184.073.184.184a.4.4,0,0,1-.073.257,3.461,3.461,0,0,1-3.417,2.461,3.641,3.641,0,0,1-3.711-3.968V48.694c0-2.5,1.58-4,3.674-4a3.633,3.633,0,0,1,3.674,3.968v.882s-.11.294-.294.294H35.636V50.2Zm4.629-1.47v-.257a2.331,2.331,0,1,0-4.629,0v.257h4.629Z" transform="translate(91.552 119.467)" fill="#fff"/>
    <path id="Pfad_426" data-name="Pfad 426" d="M36.8,48.694c0-2.5,1.58-4,3.674-4s3.674,1.47,3.674,4v1.359c0,2.5-1.58,3.968-3.674,3.968S36.8,52.552,36.8,50.054Zm1.359,1.433c0,1.763.955,2.682,2.315,2.682s2.278-.918,2.278-2.682V48.621c0-1.727-.955-2.682-2.278-2.682s-2.315.955-2.315,2.682Z" transform="translate(98.397 119.467)" fill="#fff"/>
    <path id="Pfad_427" data-name="Pfad 427" d="M39.764,53.7s-.294-.11-.294-.294v-8.34s.11-.331.294-.331h.7s.294.147.294.331v1.212a2.65,2.65,0,0,1,2.535-1.506h.257s.331.147.331.331v.735s-.147.294-.331.294h-.257c-1.8,0-2.461,1.47-2.461,2.976v4.372s-.11.294-.294.294H39.8Z" transform="translate(105.536 119.601)" fill="#fff"/>
    <path id="Pfad_428" data-name="Pfad 428" d="M41.11,48.694c0-2.5,1.58-4,3.674-4s3.674,1.47,3.674,4v1.359c0,2.5-1.58,3.968-3.674,3.968s-3.674-1.47-3.674-3.968Zm1.359,1.433c0,1.763.955,2.682,2.315,2.682s2.278-.918,2.278-2.682V48.621c0-1.727-.955-2.682-2.278-2.682s-2.315.955-2.315,2.682Z" transform="translate(109.921 119.467)" fill="#fff"/>
    <path id="Pfad_429" data-name="Pfad 429" d="M44.084,56.325s-.294-.11-.294-.294V44.091s.11-.331.294-.331h.735s.294.147.294.331v11.94s-.11.294-.294.294Z" transform="translate(117.087 116.98)" fill="#fff"/>
    <path id="Pfad_430" data-name="Pfad 430" d="M44.84,48.694c0-2.5,1.58-4,3.674-4s3.674,1.47,3.674,4v1.359c0,2.5-1.58,3.968-3.674,3.968s-3.674-1.47-3.674-3.968ZM46.2,50.127c0,1.763.955,2.682,2.315,2.682s2.278-.918,2.278-2.682V48.621c0-1.727-.955-2.682-2.278-2.682s-2.315.955-2.315,2.682Z" transform="translate(119.895 119.467)" fill="#fff"/>
    <path id="Pfad_431" data-name="Pfad 431" d="M50.363,58.254c-1.984,0-3.013-1.176-3.013-2.608a2.146,2.146,0,0,1,1.1-2.021,1.45,1.45,0,0,1-.918-1.433,1.515,1.515,0,0,1,1.4-1.58,2.622,2.622,0,0,1-1.139-2.241,3.027,3.027,0,0,1,3.27-3.013h.478a3.242,3.242,0,0,1,2.094.735V44.734s.11-.294.294-.294h.661s.294.147.294.294v3.6a2.987,2.987,0,0,1-3.27,3.013H49.775c-.625,0-.992.257-.992.808,0,.625.367.808,1.286.808h2.315c1.984,0,3.013,1.176,3.013,2.645s-1.029,2.608-3.013,2.608H50.4Zm-1.69-2.608c0,.882.514,1.47,1.874,1.47h1.616c1.4,0,1.874-.588,1.874-1.47s-.514-1.506-1.874-1.506H50.546C49.187,54.139,48.673,54.763,48.673,55.645Zm.4-7.274a1.863,1.863,0,0,0,2.021,1.91h.4a1.9,1.9,0,1,0,0-3.784h-.4A1.836,1.836,0,0,0,49.077,48.371Z" transform="translate(126.606 118.799)" fill="#fff"/>
    <path id="Pfad_432" data-name="Pfad 432" d="M50.03,44.668a.918.918,0,1,1,.918.918A.868.868,0,0,1,50.03,44.668Zm.551,11.683s-.294-.11-.294-.294v-8.34s.11-.331.294-.331h.772s.294.147.294.331v8.34s-.147.294-.294.294Z" transform="translate(133.772 116.954)" fill="#fff"/>
    <path id="Pfad_433" data-name="Pfad 433" d="M52.529,50.237a2.34,2.34,0,0,0,2.351,2.572A2.107,2.107,0,0,0,57.048,51.3a.3.3,0,0,1,.294-.184h.845s.184.073.184.184a.4.4,0,0,1-.073.257,3.461,3.461,0,0,1-3.417,2.461,3.641,3.641,0,0,1-3.711-3.968V48.694c0-2.5,1.58-4,3.674-4a3.633,3.633,0,0,1,3.674,3.968v.882s-.11.294-.294.294H52.566V50.2Zm4.629-1.47v-.257a2.331,2.331,0,1,0-4.629,0v.257h4.629Z" transform="translate(136.82 119.467)" fill="#fff"/>
    <path id="Pfad_434" data-name="Pfad 434" d="M22.592,23.018c-2.278-2.608-3.2-5.327-2.792-8.046.661-4.188,4.262-7.6,6.429-9.332a.138.138,0,0,0,0-.22c-.514-.625-1.029-1.212-1.543-1.8a.138.138,0,0,0-.22,0C21.931,5.641,17.89,9.535,17.118,14.6q-.827,5.345,3.417,10.25A26.466,26.466,0,0,0,34.9,33.635a.2.2,0,0,0,.22-.147c0-.478.073-1.69.11-2.425,0-.073-.037-.147-.11-.147a23.155,23.155,0,0,1-12.491-7.789Z" transform="translate(45.411 9.505)" fill="#fff"/>
    <path id="Pfad_435" data-name="Pfad 435" d="M28.329,51.774c-8.413,4.519-12.381,4.078-14.254,2.9-2.131-1.359-2.278-4.188-2.2-5.364.184-4.335,2.461-8.193,5.07-12.6,3.27-5.511,6.98-11.793,7.642-20.794C24.876,12.207,23.443,6.549,15.8.01h-.073a31.332,31.332,0,0,0-3.711.147c-.11,0-.147.184-.073.22,8.67,6.576,10.213,11.94,9.956,15.32-.625,8.376-4.151,14.365-7.274,19.618-2.682,4.556-5.217,8.854-5.437,13.85-.147,3.453,1.1,6.282,3.49,7.789a8.252,8.252,0,0,0,4.556,1.176c3.27,0,7.421-1.323,12.381-4,6.5-3.49,14.181-2.608,22.815,2.572a.134.134,0,0,0,.184-.073c.331-.772.661-1.506.955-2.278,0-.073,0-.147-.073-.147-9.368-5.548-17.855-6.392-25.2-2.461Z" transform="translate(24.537)" fill="#bfce40"/>
    <path id="Pfad_436" data-name="Pfad 436" d="M10.078,67.5c-3.2-11.389.845-21.235,6.062-31.962.514-1.029.992-2.057,1.506-3.013,3.417-6.833,6.319-12.711,4.849-20.1C21.246,6.148,16.029,2.474,11.878.49H11.8c-1.176.367-2.351.772-3.49,1.249-.073.037-.11.147,0,.184C11.951,3.245,18.527,6.478,19.85,12.944c1.286,6.5-1.323,11.756-4.629,18.369-.478.992-.992,1.984-1.506,3.049-5.474,11.279-9.7,21.6-6.209,33.91a28.3,28.3,0,0,0,4.445,9.442l.073.037a36.187,36.187,0,0,0,4.482,1.065c.11,0,.184-.11.073-.184-1.947-1.58-4.7-4.776-6.466-11.095Z" transform="translate(16.668 1.283)" fill="#fff"/>
    <path id="Pfad_437" data-name="Pfad 437" d="M27.052,17.8C28.374,7.7,21.174,3.51,15.92,1.82h-.11c-.882.588-1.727,1.212-2.535,1.837a.138.138,0,0,0,.037.22c10.764,2.388,11.573,9.442,11.022,13.556C21.321,40.836,7.654,48.441.894,50.792a.1.1,0,0,0-.073.147c.331.772.661,1.543,1.029,2.278,0,.037.073.073.147.073a33.726,33.726,0,0,0,11.352-6.76c7.495-6.686,12.087-16.349,13.7-28.729Z" transform="translate(2.155 4.84)" fill="#fff"/>
    <path id="Pfad_438" data-name="Pfad 438" d="M5.988,32.9a7.214,7.214,0,0,0,2.168.331c2.608,0,5.327-1.4,7.752-4.078,4.041-4.409,7.054-12.381,4.923-17.634C18.406,5.526,12.785,4.277,8.817,4.13H8.744Q7.752,5.342,6.87,6.665c-.037.073,0,.147.073.147,4.409-.11,9.295.625,11.352,5.694,1.506,3.747-.514,10.544-4.409,14.806-1.359,1.506-4.151,3.894-7.127,2.976C4.3,29.553,2.168,25.659.772,21.8c0-.073-.184-.073-.184,0A44.56,44.56,0,0,0,0,26.761V26.8c1.433,2.719,3.38,5.327,5.952,6.1Z" transform="translate(0 11.016)" fill="#fff"/>
    <path id="Pfad_439" data-name="Pfad 439" d="M6.542,17.621a4.5,4.5,0,0,0,.7.073,4.338,4.338,0,0,0,3.306-1.543h0c2.278-2.5,2.608-5.254.845-7.384C9.334,6.306,4.925,5.351,2.5,6.894c-.918.588-2.829,2.315-1.065,6.246,1.1,2.425,3.049,4.151,5.07,4.482ZM3.97,9.171A2.851,2.851,0,0,1,5.4,8.841a5.412,5.412,0,0,1,3.931,1.653c.331.4,1.323,1.58-.735,3.821a1.721,1.721,0,0,1-1.616.625A4.831,4.831,0,0,1,3.933,12c-.441-.992-.808-2.315,0-2.829Z" transform="translate(1.908 16.408)" fill="#fff"/>
    <path id="Pfad_440" data-name="Pfad 440" d="M19.895,9.3a8,8,0,0,0,1.4,7.678,12.065,12.065,0,0,0,6.833,4.262.206.206,0,0,0,.22-.184c-.11-.882-.22-1.727-.4-2.572,0-.073-.073-.11-.11-.147a9.058,9.058,0,0,1-4.409-3.013,5.208,5.208,0,0,1-.992-5.107,5.061,5.061,0,0,1,1.8-2.388c.073-.037.073-.147.037-.22-.367-.7-.735-1.4-1.139-2.094a.227.227,0,0,0-.257-.073,7.753,7.753,0,0,0-3.013,3.821Z" transform="translate(52.002 14.482)" fill="#fff"/>
    <path id="Pfad_441" data-name="Pfad 441" d="M24.059,41.6a15.96,15.96,0,0,1-3.747,0,5,5,0,0,1-3.894-2.9c-1.176-2.682-.073-6.8,3.086-11.573,3.637-5.511,5.658-15.063.7-25.313,0,0-.037-.073-.073-.073C18.989,1.262,17.85.857,16.674.49c-.11,0-.22.073-.147.184,3.343,5.915,6.466,16.312.735,24.945-4.7,7.09-4.409,11.609-3.306,14.144a7.733,7.733,0,0,0,5.952,4.519,17.731,17.731,0,0,0,4.409.037c3.564-.294,8.413-.661,19.545,4.556.073,0,.184,0,.184-.073.184-.808.367-1.616.514-2.461,0-.073,0-.11-.073-.147-11.426-5.254-16.569-4.849-20.353-4.556Z" transform="translate(35.494 1.283)" fill="#fff"/>
    <path id="Pfad_442" data-name="Pfad 442" d="M28.383,15.578a20.26,20.26,0,0,0-12.6,6.76,16.122,16.122,0,0,0-3.894,12.785,15.959,15.959,0,0,0,1.286,4.335c0,.073.11.11.22.11.808-.073,1.616-.22,2.425-.367.147,0,.184-.184.147-.294a13.008,13.008,0,0,1-1.4-4.225,13.306,13.306,0,0,1,3.27-10.654,17.4,17.4,0,0,1,10.911-5.841,17.435,17.435,0,0,1,13.483,3.6.194.194,0,0,0,.294-.037q.661-.992,1.212-1.984a.323.323,0,0,0-.037-.257,20.082,20.082,0,0,0-15.32-4Z" transform="translate(31.39 40.863)" fill="#fff"/>
    <path id="Pfad_443" data-name="Pfad 443" d="M22.86,17.474a8.258,8.258,0,0,0-7.274,9.111,7.726,7.726,0,0,0,1.249,3.233.177.177,0,0,0,.22.073c.7-.367,1.4-.735,2.094-1.139a.177.177,0,0,0,.037-.257,5.038,5.038,0,0,1-.955-2.278,5.572,5.572,0,0,1,5-6.062A6.08,6.08,0,0,1,28,21.515a.178.178,0,0,0,.257,0c.551-.588,1.065-1.176,1.58-1.763.073-.073.037-.184,0-.257A8.788,8.788,0,0,0,22.9,17.474Z" transform="translate(41.469 46.461)" fill="#fff"/>
    <path id="Pfad_444" data-name="Pfad 444" d="M43.581,14.069H35.866A1,1,0,0,0,34.837,15.1v1.727a1.059,1.059,0,0,0,1.029,1.065h4.666v1.1a4.882,4.882,0,0,1-5,4.739c-3.123,0-5.254-2.388-5.254-5.952V12.526c0-3.6,2.094-5.988,5.217-5.988a4.619,4.619,0,0,1,4.813,4.151c.147.625.441.918.918.918h2.608a.763.763,0,0,0,.772-.808v-.514A8.793,8.793,0,0,0,35.572,2.57c-5.474,0-9.442,4.078-9.442,9.919v5.327c0,5.841,3.784,9.919,9.221,9.919A7.178,7.178,0,0,0,40.9,25.458v.882a1.027,1.027,0,0,0,1.029,1.029h1.69a1.027,1.027,0,0,0,1.029-1.029V15.135a1,1,0,0,0-1.029-1.029Z" transform="translate(69.867 6.845)" fill="#fff"/>
    <path id="Pfad_445" data-name="Pfad 445" d="M44.715,4.43c-4.482,0-7.6,3.306-7.6,8.046v2.241c0,4.739,3.123,8.009,7.6,8.009s7.642-3.306,7.642-8.009V12.476c0-4.739-3.16-8.046-7.642-8.046ZM41.3,12.072c0-2.425,1.323-3.968,3.417-3.968s3.453,1.543,3.453,3.968v3.049c0,2.461-1.323,3.968-3.453,3.968S41.3,17.509,41.3,15.121V12.072Z" transform="translate(99.226 11.818)" fill="#fff"/>
    <path id="Pfad_446" data-name="Pfad 446" d="M52.016,13.087c-2.755-.772-5.143-1.433-5.143-3.784,0-2.131,1.249-2.976,4.262-2.976,3.2,0,3.821,1.727,4,3.013.147.661.478.955,1.065.955h2.057A1.027,1.027,0,0,0,59.29,9.266c0-3.343-2.535-6.686-8.156-6.686s-8.487,2.461-8.487,6.76c0,5.4,4.372,6.613,7.9,7.6,2.719.772,5.07,1.433,5.07,3.674S54.184,24,51.134,24c-4.151,0-4.849-2.792-4.96-4a1.03,1.03,0,0,0-.992-.918H43.089a1.035,1.035,0,0,0-1.029,1.065c0,3.049,2.425,7.568,9.038,7.568,8.119,0,8.744-5.437,8.744-7.091,0-5.327-4.151-6.5-7.789-7.495Z" transform="translate(112.462 6.872)" fill="#fff"/>
    <path id="Pfad_447" data-name="Pfad 447" d="M56.61,4.43a5.709,5.709,0,0,0-4.482,1.8V5.863A1.066,1.066,0,0,0,51.063,4.8H48.969A1.035,1.035,0,0,0,47.94,5.863v22.3a1.059,1.059,0,0,0,1.029,1.065h2.094a1.066,1.066,0,0,0,1.065-1.065V21a5.705,5.705,0,0,0,4.482,1.763c4.115,0,6.539-3.049,6.539-8.156V12.512c0-5.107-2.388-8.046-6.539-8.046Zm2.351,7.642v3.049c0,2.5-1.286,3.968-3.417,3.968s-3.453-1.543-3.453-3.968v-3.16c0-2.351,1.359-3.894,3.453-3.894,2.5,0,3.417,2.057,3.417,3.968Z" transform="translate(128.184 11.818)" fill="#fff"/>
    <path id="Pfad_448" data-name="Pfad 448" d="M61.794,9.163a5.579,5.579,0,0,0-4.445,1.8V3.725A1.066,1.066,0,0,0,56.283,2.66H54.189A1.035,1.035,0,0,0,53.16,3.725V26.062a1,1,0,0,0,1.029,1.029h2.094a1.059,1.059,0,0,0,1.065-1.029V16.8c0-2.461,1.286-3.968,3.38-3.968s3.38,1.543,3.38,3.968v9.258a1,1,0,0,0,1.029,1.029h2.094A1.059,1.059,0,0,0,68.3,26.062V17.208C68.3,12.1,65.945,9.163,61.794,9.163Z" transform="translate(142.141 7.086)" fill="#fff"/>
    <path id="Pfad_449" data-name="Pfad 449" d="M72.127,4.52h-.441a5.364,5.364,0,0,0-4.3,2.021V5.622a1.059,1.059,0,0,0-1.029-1.065h-1.91A1.035,1.035,0,0,0,63.42,5.622v15.5a1.027,1.027,0,0,0,1.029,1.029h2.057a1.059,1.059,0,0,0,1.065-1.029V13.411c0-3.086,1.359-4.666,4.078-4.666h.478a1.059,1.059,0,0,0,1.065-1.029V5.659a1.066,1.066,0,0,0-1.065-1.065Z" transform="translate(169.575 12.059)" fill="#fff"/>
    <path id="Pfad_450" data-name="Pfad 450" d="M74.382,4.457c-4.445,0-7.642,3.38-7.642,8.046v2.241c0,4.739,3.16,8.009,7.678,8.009,2.535,0,5.511-.845,6.8-4.3h0a2.176,2.176,0,0,0,.147-.551.8.8,0,0,0-.808-.845H78.313a1.052,1.052,0,0,0-.955.551h0c-1.323,1.616-1.874,1.506-2.976,1.506-2.057,0-3.453-1.58-3.453-3.821v-.22h9.919a1.035,1.035,0,0,0,1.029-1.065v-1.58c0-4.556-3.233-8.009-7.495-8.009Zm-3.453,7.421a3.464,3.464,0,1,1,6.907-.037v.147h-6.87v-.11Z" transform="translate(178.452 11.792)" fill="#fff"/>
    <path id="Pfad_451" data-name="Pfad 451" d="M65.892,4.457c-4.445,0-7.642,3.38-7.642,8.046v2.241c0,4.739,3.159,8.009,7.678,8.009,2.535,0,5.511-.845,6.8-4.3h0a2.176,2.176,0,0,0,.147-.551.8.8,0,0,0-.808-.845H69.823a1.052,1.052,0,0,0-.955.551h0c-1.323,1.616-1.874,1.506-2.976,1.506-2.057,0-3.453-1.58-3.453-3.821v-.22h9.919a1.035,1.035,0,0,0,1.029-1.065v-1.58c0-4.556-3.233-8.009-7.495-8.009Zm-3.453,7.421a3.464,3.464,0,1,1,6.907-.037v.147h-6.87v-.11Z" transform="translate(155.751 11.792)" fill="#fff"/>
    <path id="Pfad_452" data-name="Pfad 452" d="M39.8,4.457c-4.445,0-7.642,3.38-7.642,8.046v2.241c0,4.739,3.16,8.009,7.678,8.009,2.535,0,5.511-.845,6.8-4.3h0a2.176,2.176,0,0,0,.147-.551.8.8,0,0,0-.808-.845H43.733a1.052,1.052,0,0,0-.955.551h0c-1.323,1.616-1.874,1.506-2.976,1.506-2.057,0-3.453-1.58-3.453-3.821v-.22h9.919A1.035,1.035,0,0,0,47.3,14.009v-1.58c0-4.556-3.233-8.009-7.495-8.009Zm-3.453,7.421a3.464,3.464,0,1,1,6.907-.037v.147h-6.87v-.11Z" transform="translate(85.991 11.792)" fill="#fff"/>
    <path id="Pfad_453" data-name="Pfad 453" d="M28.538,36.283a.507.507,0,0,1-.514.331H26.3a.347.347,0,0,1-.367-.367,3.435,3.435,0,0,1,.22-.7L34.27,13.211a.749.749,0,0,1,.661-.551h1.947a.708.708,0,0,1,.625.514l8.266,22.594a2.51,2.51,0,0,1,.147.478.346.346,0,0,1-.367.367H43.822a.521.521,0,0,1-.551-.331l-2.2-6.025H30.706l-2.131,6.025Zm7.274-20.61-4.3,12.2h8.67l-4.335-12.2Z" transform="translate(69.333 33.824)" fill="#fff"/>
    <path id="Pfad_454" data-name="Pfad 454" d="M45.058,14.53a.612.612,0,0,1,.588.625V31.1a.551.551,0,0,1-.588.551H43.625a.551.551,0,0,1-.588-.551V29.593a5.063,5.063,0,0,1-4.7,2.388c-3.931,0-6.025-2.755-6.025-7.568V15.155a.612.612,0,0,1,.588-.625h1.433a.612.612,0,0,1,.588.625V24.56c0,3.343,1.359,5.143,3.931,5.143s4.225-1.763,4.225-5.143V15.155a.612.612,0,0,1,.588-.625h1.433Z" transform="translate(86.392 38.824)" fill="#fff"/>
    <path id="Pfad_455" data-name="Pfad 455" d="M50.085,27.2c0,3.674-2.939,5-6.429,5-3.894,0-6.135-2.241-6.466-4.629V27.2c0-.184.22-.331.441-.331h1.433a.462.462,0,0,1,.514.4c.331,1.249,1.47,2.719,4.078,2.719,2.2,0,3.858-.7,3.858-2.719,0-4.409-10.1-.882-10.1-8.082,0-3.453,3.123-4.739,6.025-4.739,5.254,0,5.915,3.637,6.209,4.556v.257a.479.479,0,0,1-.478.441H47.7c-.294,0-.4-.147-.478-.441-.257-1.065-.808-2.535-3.821-2.535-1.543,0-3.417.514-3.417,2.425,0,4.666,10.1,1.139,10.1,8.119Z" transform="translate(99.44 38.61)" fill="#fff"/>
    <path id="Pfad_456" data-name="Pfad 456" d="M49.91,34.875c-4.7,0-5.474-2.021-5.474-6.025V20.143H41.791a.551.551,0,0,1-.551-.588V18.38a.583.583,0,0,1,.551-.625c1.8,0,2.719-.4,2.719-2.572V13.935a.583.583,0,0,1,.551-.625H46.42a.59.59,0,0,1,.588.625v3.821h3.858a.59.59,0,0,1,.588.625v1.176a.58.58,0,0,1-.588.588H47.008V28.63c0,3.049.331,3.858,3.2,3.858h.7a.59.59,0,0,1,.588.625v1.249a.551.551,0,0,1-.588.551h-.955Z" transform="translate(110.269 35.562)" fill="#fff"/>
    <path id="Pfad_457" data-name="Pfad 457" d="M45.768,31.64a.551.551,0,0,1-.588-.551V15.145a.612.612,0,0,1,.588-.625h1.286a.59.59,0,0,1,.588.625v2.278a5,5,0,0,1,4.813-2.9h.478a.619.619,0,0,1,.625.625V16.5a.59.59,0,0,1-.625.588h-.514c-3.417,0-4.7,2.829-4.7,5.658v8.34a.551.551,0,0,1-.588.551h-1.4Z" transform="translate(120.804 38.797)" fill="#fff"/>
    <path id="Pfad_458" data-name="Pfad 458" d="M48.54,14.377a1.659,1.659,0,0,1,1.727-1.727,1.727,1.727,0,1,1-1.727,1.727ZM49.569,36.64a.551.551,0,0,1-.588-.551V20.145a.612.612,0,0,1,.588-.625H51a.612.612,0,0,1,.588.625V36.089A.551.551,0,0,1,51,36.64Z" transform="translate(129.788 33.797)" fill="#fff"/>
    <path id="Pfad_459" data-name="Pfad 459" d="M64.009,31.356a.562.562,0,0,1-.625.551H62.1a.551.551,0,0,1-.588-.551V29.7c-.735,1.69-2.719,2.535-4.7,2.535h-.661c-3.159,0-5.547-1.653-5.547-5.033,0-4.041,3.16-5.033,6.319-5.033h4.592V21c0-2.131-.367-4.225-3.931-4.225-2.719,0-3.38,1.065-3.674,2.461a.468.468,0,0,1-.514.441h-1.47a.444.444,0,0,1-.478-.478v-.257c.294-2.057,1.506-4.519,6.1-4.519,5.841,0,6.429,3.711,6.429,6.65V31.32ZM56.992,24.3c-2.829,0-3.894.882-3.894,2.9s1.543,2.829,3.343,2.829h.7c3.6,0,4.372-2.645,4.372-4.666v-1.1H56.992Z" transform="translate(135.296 38.53)" fill="#fff"/>
  </g>
</svg>
