<svg xmlns="http://www.w3.org/2000/svg" viewBox="0 0 32 32" style="height: 32px; width: auto; fill: currentcolor;" class="icon"><path d="M-2823,35a15.9,15.9,0,0,1-11.313-4.686A15.9,15.9,0,0,1-2839,19a15.9,15.9,0,0,1,4.686-11.314A15.894,15.894,0,0,1-2823,3a15.9,15.9,0,0,1,11.314,4.687A15.9,15.9,0,0,1-2807,19a15.9,15.9,0,0,1-4.686,11.314A15.9,15.9,0,0,1-2823,35Zm-2.019-18.312V25.9h2.865V21.33c0-1.169.2-2.364,1.708-2.364,1.485,0,1.485,1.407,1.485,2.434v4.487h2.865v-5.04c0-2.276-.416-4.383-3.434-4.383a3.012,3.012,0,0,0-2.71,1.484h-.034v-1.26Zm-4.66,0V25.9h2.865V16.688Zm1.433-4.591a1.659,1.659,0,0,0-1.657,1.657,1.667,1.667,0,0,0,1.657,1.674,1.667,1.667,0,0,0,1.657-1.674A1.659,1.659,0,0,0-2828.247,12.1Z" transform="translate(2839 -3)" fill="#bfce40"></path></svg>