<svg xmlns="http://www.w3.org/2000/svg" viewBox="0 0 32 32" style="height: 32px; width: auto; fill: currentcolor;" class="icon"><path d="M-2823,35a15.9,15.9,0,0,1-11.313-4.686A15.9,15.9,0,0,1-2839,19a15.9,15.9,0,0,1,4.686-11.314A15.894,15.894,0,0,1-2823,3a15.9,15.9,0,0,1,11.314,4.687A15.9,15.9,0,0,1-2807,19a15.9,15.9,0,0,1-4.686,11.314A15.9,15.9,0,0,1-2823,35Zm-5.953-23A4.057,4.057,0,0,0-2833,16.058v6.455a4.057,4.057,0,0,0,4.046,4.058h11.58a4.056,4.056,0,0,0,4.045-4.058V16.058A4.056,4.056,0,0,0-2817.374,12Zm11.58,13.342h-11.58a2.826,2.826,0,0,1-2.817-2.828V16.058a2.826,2.826,0,0,1,2.817-2.829h11.58a2.825,2.825,0,0,1,2.815,2.829v6.456A2.825,2.825,0,0,1-2817.374,25.341Zm-7.949-9.659a.615.615,0,0,0-.306.082.616.616,0,0,0-.309.534v6.368a.615.615,0,0,0,.309.534.617.617,0,0,0,.306.082.619.619,0,0,0,.31-.085l5.437-3.183a.619.619,0,0,0,.3-.531.615.615,0,0,0-.3-.531l-5.437-3.184A.619.619,0,0,0-2825.322,15.682Zm.615,5.91V17.37l3.605,2.112-3.6,2.11Z" transform="translate(2839 -3)" fill="#bfce40"></path></svg>